<?xml version="1.0" encoding="UTF-8" standalone="no"?>
<!-- Created with Inkscape (http://www.inkscape.org/) -->

<svg
   width="40mm"
   height="40mm"
   viewBox="0 0 40 40"
   version="1.1"
   id="svg5"
   xmlns="http://www.w3.org/2000/svg"
   xmlns:svg="http://www.w3.org/2000/svg">
  <defs
     id="defs2" />
  <g
     id="layer1">
    <path
       style="font-size:3.175px;font-family:'Eras Bold ITC';-inkscape-font-specification:'Eras Bold ITC';font-variation-settings:normal;opacity:1;fill:#003f77;fill-opacity:1;stroke:#ffffff;stroke-width:1;stroke-linecap:butt;stroke-linejoin:miter;stroke-miterlimit:4;stroke-dasharray:none;stroke-dashoffset:0;stroke-opacity:1;stop-color:#000000;stop-opacity:1"
       d="M 2.0725038,33.644298 Q 1.8687296,29.341449 1.6021029,26.7557 q 1.7560911,1.010065 3.1202061,1.414084 1.3797924,0.383825 2.4146308,0.383825 1.364121,0 2.163759,-0.505024 0.8153802,-0.525234 0.8153802,-1.535288 0,-0.343422 -0.07888,-0.646433 -0.07888,-0.323219 -0.2979722,-0.707039 -0.219474,-0.404028 -0.627156,-0.868655 L 6.1643371,20.97818 Q 5.1294978,19.846919 4.7218263,19.341887 3.8907712,18.311626 3.4204406,17.422776 2.9657398,16.533924 2.74625,15.624871 2.5424758,14.695612 2.5424758,13.66536 q 0,-1.232272 0.3293187,-2.403938 0.344965,-1.191866 1.0191611,-2.2221279 0.6741906,-1.0302607 1.7874639,-1.777702 1.1132414,-0.7474453 2.3832693,-1.010063 1.270035,-0.2828154 2.6184642,-0.2828154 2.649832,0 5.770033,0.7878396 0.04764,1.3938794 0.109737,2.5655471 0.06269,1.1514706 0.297973,4.0604336 -1.442511,-0.747445 -2.634154,-1.030259 -1.191637,-0.303011 -2.054005,-0.303011 -1.222994,0 -2.038326,0.585841 -0.7995992,0.585825 -0.7995992,1.454483 0,0.404027 0.125437,0.78784 0.125382,0.383826 0.4703995,0.909049 0.3449637,0.505027 0.9094337,1.131261 0.564454,0.606034 1.771776,1.818102 l 1.128918,1.151471 q 0.501748,0.525233 1.081891,1.27268 0.580132,0.747445 1.003494,1.474685 0.423355,0.727247 0.642839,1.333276 0.235174,0.606035 0.344964,1.232272 0.109737,0.606037 0.109737,1.313074 0,1.818105 -0.674191,3.474601 -0.674186,1.636293 -1.91289,2.706956 -1.238678,1.050457 -2.728212,1.474682 -1.473872,0.424224 -3.1202152,0.424224 -2.5400635,0 -6.4128898,-0.949458 z"
       id="path3"
       aria-label="S" />
    <path
       style="font-size:3.175px;font-family:'Eras Bold ITC';-inkscape-font-specification:'Eras Bold ITC';font-variation-settings:normal;opacity:1;fill:#003f77;fill-opacity:1;stroke:#ffffff;stroke-width:1;stroke-linecap:butt;stroke-linejoin:miter;stroke-miterlimit:4;stroke-dasharray:none;stroke-dashoffset:0;stroke-opacity:1;stop-color:#000000;stop-opacity:1"
       d="m 13.362899,34.590974 q 0.271338,-5.40816 0.390657,-9.055525 0.1302,-3.647366 0.249628,-9.684385 0.130201,-6.0579776 0.130201,-8.0283954 l -0.01083,-1.8446425 q 2.561025,0.041936 6.196387,0.041936 3.353204,0 5.914239,-0.041936 l -0.02219,0.6917462 q -0.01028,0.2515355 -0.05463,1.8236813 l -0.06513,2.2848454 q -0.02165,0.733662 -0.02165,1.488294 -2.094398,-0.167694 -3.51599,-0.167694 -1.562664,0 -2.116101,0.02096 -0.542561,0 -1.70374,0.08383 l -0.130202,4.800266 q 1.28051,0.0629 2.984245,0.0629 0.607727,0 3.233836,-0.146739 -0.108492,2.683118 -0.206156,6.393368 -1.877365,-0.04194 -2.886586,-0.04194 -1.497547,0 -3.353214,0.146739 l -0.130201,5.093734 h 1.247962 q 0.553405,0 2.289726,-0.0629 l 2.246329,-0.104803 q 0.499148,-0.02096 1.671176,-0.167693 -0.1302,3.102359 -0.217037,6.414332 -2.647839,-0.04194 -5.805715,-0.04194 l -4.774795,0.02096 z"
       id="text4"
       aria-label="E" />
    <path
       style="font-size:3.175px;font-family:'Eras Bold ITC';-inkscape-font-specification:'Eras Bold ITC';fill:#003f77;fill-opacity:1;stroke:#ffffff;stroke-width:1;stroke-linecap:round;stroke-linejoin:round;stroke-dasharray:none;stroke-opacity:1"
       d="M 26.828935,34.583151 22.100027,5.989844 h 5.312586 l 2.253371,16.453089 3.735744,-16.4530883 h 5.234538 L 31.75786,34.583152 Z"
       id="text5"
       aria-label="V" />
  </g>
</svg>
